<?xml version="1.0" encoding="UTF-8" standalone="no"?>
<!DOCTYPE svg PUBLIC "-//W3C//DTD SVG 1.1//EN" "http://www.w3.org/Graphics/SVG/1.1/DTD/svg11.dtd">
<svg width="100%" height="100%" viewBox="0 0 29 24" version="1.1" xmlns="http://www.w3.org/2000/svg" xmlns:xlink="http://www.w3.org/1999/xlink" xml:space="preserve" xmlns:serif="http://www.serif.com/" style="fill-rule:evenodd;clip-rule:evenodd;stroke-linecap:round;stroke-linejoin:round;stroke-miterlimit:1.5;">
    <g transform="matrix(1,0,0,1,-2.1658,-4.78898)">
        <g id="clothing" transform="matrix(1.19551,0,0,1.19551,-3.07306,-0.644029)">
            <g>
                <path d="M12.788,5.101C14.163,8.462 17.597,7.322 17.963,5.046C23.057,4.917 23.149,4.902 23.39,5.264C23.939,6.087 24.999,6.574 27.288,12.051C27.688,13.007 28.507,13.571 27.097,14.04C25.485,14.578 25.135,14.455 24.699,14.367C23.666,14.161 23.123,11.99 23.063,11.751C22.746,15.08 22.589,15.071 22.873,20.037C22.896,20.453 23.059,22.195 23.066,22.331C22.156,22.771 22.122,22.624 16.658,23.307C13.526,23.699 13.543,23.923 10.474,23.741C10.188,20.516 9.764,20.561 9.926,17.311C10.048,14.877 9.917,14.899 9.871,12.471C9.112,13.971 9.151,13.974 8.218,15.379C6.536,14.669 6.507,14.801 4.8,14.167C5.738,12.881 6.627,9.165 8.073,6.273C8.198,6.022 12.245,4.584 12.788,5.128" style="fill:none;stroke:black;stroke-width:0.84px;"/>
            </g>
        </g>
    </g>
</svg>
