<?xml version="1.0" encoding="UTF-8" standalone="no"?>
<!DOCTYPE svg PUBLIC "-//W3C//DTD SVG 1.1//EN" "http://www.w3.org/Graphics/SVG/1.1/DTD/svg11.dtd">
<svg width="100%" height="100%" viewBox="0 0 30 26" version="1.1" xmlns="http://www.w3.org/2000/svg" xmlns:xlink="http://www.w3.org/1999/xlink" xml:space="preserve" xmlns:serif="http://www.serif.com/" style="fill-rule:evenodd;clip-rule:evenodd;stroke-linecap:round;stroke-linejoin:round;stroke-miterlimit:1.5;">
    <g transform="matrix(1,0,0,1,-1.78377,-4.71632)">
        <g id="footwear" transform="matrix(1.18511,0,0,1.18511,-3.43007,-4.45352)">
            <g transform="matrix(1.11338,0,0,1.12439,-0.668624,0.500592)">
                <path d="M17.385,12.473C17.185,12.427 14.186,8.235 9.262,6.939C5.835,6.037 7.333,10.166 8.566,11.494C11.371,14.515 13.044,15.485 14.304,16.745" style="fill:none;stroke:black;stroke-width:0.75px;"/>
            </g>
            <g transform="matrix(1.11338,0,0,1.12439,-0.668624,0.500592)">
                <path d="M14.582,16.919C16.004,16.482 15.74,15.304 17.434,13.233C17.849,12.725 18.849,12.27 18.616,12.503" style="fill:none;stroke:black;stroke-width:0.75px;"/>
            </g>
            <g transform="matrix(1.11338,0,0,1.12439,-0.668624,0.500592)">
                <path d="M18.541,12.519C18.231,11.251 18.661,12.832 19.242,14.033C20.188,15.988 26.717,19.159 26.371,23.318C26.251,24.754 23.846,25.62 20.563,23.978" style="fill:none;stroke:black;stroke-width:0.75px;"/>
            </g>
            <g transform="matrix(1.11338,0,0,1.12439,-0.668624,0.500592)">
                <path d="M7.171,7.478C6.922,8.199 4.127,11.543 5.158,13.059C7.612,16.668 7.724,18.81 9.679,18.484C11.661,18.154 13.771,22.645 22.024,24.709" style="fill:none;stroke:black;stroke-width:0.75px;"/>
            </g>
        </g>
    </g>
</svg>
