<?xml version="1.0" encoding="UTF-8" standalone="no"?>
<!DOCTYPE svg PUBLIC "-//W3C//DTD SVG 1.1//EN" "http://www.w3.org/Graphics/SVG/1.1/DTD/svg11.dtd">
<svg width="100%" height="100%" viewBox="0 0 25 26" version="1.1" xmlns="http://www.w3.org/2000/svg" xmlns:xlink="http://www.w3.org/1999/xlink" xml:space="preserve" xmlns:serif="http://www.serif.com/" style="fill-rule:evenodd;clip-rule:evenodd;stroke-linecap:round;stroke-linejoin:round;stroke-miterlimit:1.5;">
    <g transform="matrix(1,0,0,1,-3.99375,-1.71141)">
        <g id="furniture">
            <path d="M4.591,5.14C4.9,4.95 9.229,14.17 9.566,14.585C11.597,14.658 11.571,14.778 13.606,14.885C14.088,14.911 14.087,14.846 19.646,15.022C19.764,15.395 20.512,17.027 20.828,18.483C21.032,19.421 21.5,22.444 21.946,24.97" style="fill:none;stroke:black;stroke-width:1px;"/>
            <path d="M9.67,14.919C9.837,15.234 8.244,24.242 8.127,26.469" style="fill:none;stroke:black;stroke-width:1px;"/>
            <path d="M4.494,5.035C4.57,4.998 11.309,2.378 11.643,2.211" style="fill:none;stroke:black;stroke-width:1px;"/>
            <path d="M9.746,14.241C9.74,14.204 15.539,10.635 15.623,10.579" style="fill:none;stroke:black;stroke-width:1px;"/>
            <path d="M15.486,10.606C22.312,11.337 22.297,11.373 23.063,11.533" style="fill:none;stroke:black;stroke-width:1px;"/>
            <path d="M23.332,11.733C23.46,11.403 23.064,12.425 20.038,14.694C19.613,15.013 19.649,15.029 19.275,15.403" style="fill:none;stroke:black;stroke-width:1px;"/>
            <path d="M11.834,2.293C14,5.779 13.71,5.908 15.541,9.57C15.691,9.871 15.728,10.358 15.868,10.497" style="fill:none;stroke:black;stroke-width:1px;"/>
            <path d="M23.363,12.241C23.521,12.494 23.541,12.485 27.888,22.626" style="fill:none;stroke:black;stroke-width:1px;"/>
            <path d="M14.081,15.461C14.026,16.631 13.467,22.195 13.415,22.926" style="fill:none;stroke:black;stroke-width:1px;"/>
        </g>
    </g>
</svg>
