<?xml version="1.0" encoding="UTF-8" standalone="no"?>
<!DOCTYPE svg PUBLIC "-//W3C//DTD SVG 1.1//EN" "http://www.w3.org/Graphics/SVG/1.1/DTD/svg11.dtd">
<svg width="100%" height="100%" viewBox="0 0 19 23" version="1.1" xmlns="http://www.w3.org/2000/svg" xmlns:xlink="http://www.w3.org/1999/xlink" xml:space="preserve" xmlns:serif="http://www.serif.com/" style="fill-rule:evenodd;clip-rule:evenodd;stroke-linecap:round;stroke-linejoin:round;stroke-miterlimit:1.5;">
    <g transform="matrix(1,0,0,1,-6.65217,-3.66826)">
        <g id="jewelry" transform="matrix(1.4209,0,0,1.4209,-5.1766,-4.83275)">
            <path d="M10.199,8.998C10.447,7.257 13.76,6.081 13.96,6.382C14.87,7.747 15.328,11.431 15.404,11.914C15.549,12.83 13.56,11.926 13.415,11.86C10.133,10.368 10.403,9.611 10.117,9.325" style="fill:none;stroke:black;stroke-width:0.7px;"/>
            <path d="M12.229,11.82C12.553,11.923 11.439,11.567 9.408,14.994C7.48,18.249 9.384,22.932 14.887,21.181C18.819,19.93 23.475,14.161 19.874,10.007C18.16,8.028 15.633,9.984 15.404,10.088" style="fill:none;stroke:black;stroke-width:0.7px;"/>
        </g>
    </g>
</svg>
