<?xml version="1.0" encoding="UTF-8" standalone="no"?>
<!DOCTYPE svg PUBLIC "-//W3C//DTD SVG 1.1//EN" "http://www.w3.org/Graphics/SVG/1.1/DTD/svg11.dtd">
<svg width="100%" height="100%" viewBox="0 0 29 27" version="1.1" xmlns="http://www.w3.org/2000/svg" xmlns:xlink="http://www.w3.org/1999/xlink" xml:space="preserve" xmlns:serif="http://www.serif.com/" style="fill-rule:evenodd;clip-rule:evenodd;stroke-linecap:round;stroke-linejoin:round;stroke-miterlimit:1.5;">
    <g transform="matrix(1,0,0,1,-2.39867,-2.37909)">
        <g id="other">
            <g transform="matrix(1.16702,0,0,1.13556,-5.73907,-2.7048)">
                <path d="M14.53,19.945C14.845,19.866 16.13,19.011 18.738,17.754C18.831,17.709 24.274,15.301 26.423,14.26C28.66,15.449 28.783,15.089 31.091,16.173C28.433,17.169 28.491,17.234 25.797,18.171C21.556,19.646 21.731,20.01 17.708,21.64C14.358,20.135 13.872,20.326 14.147,20.188" style="fill:none;stroke:black;stroke-width:0.87px;"/>
            </g>
            <g transform="matrix(1.16702,0,0,1.13556,-5.73907,-2.7048)">
                <path d="M26.409,14.013C26.288,13.724 26.086,13.97 23.015,12.051C19.515,9.863 18.979,10.175 19.224,9.93" style="fill:none;stroke:black;stroke-width:0.87px;"/>
            </g>
            <g transform="matrix(1.16702,0,0,1.13556,-5.73907,-2.7048)">
                <path d="M14.149,20.086C12.33,18.717 12.209,18.931 10.357,17.615C8.622,16.382 8.617,16.396 8.479,16.259" style="fill:none;stroke:black;stroke-width:0.87px;"/>
            </g>
            <g transform="matrix(1.16702,0,0,1.13556,-5.73907,-2.7048)">
                <path d="M7.964,15.882C7.88,15.804 13.921,11.903 18.633,9.547" style="fill:none;stroke:black;stroke-width:0.87px;"/>
            </g>
            <g transform="matrix(1.16702,0,0,1.13556,-5.73907,-2.7048)">
                <path d="M18.506,9.473C20.152,7.232 19.926,7.101 21.68,4.917C14.868,8.004 10.59,9.344 10.253,10.104C10.072,10.511 8.166,14.798 8.027,15.215" style="fill:none;stroke:black;stroke-width:0.87px;"/>
            </g>
            <g transform="matrix(1.16702,0,0,1.13556,-5.73907,-2.7048)">
                <path d="M14.006,20.541C13.992,20.477 13.958,20.307 13.974,20.397C14.083,21.016 13.996,24.92 14.217,27.734" style="fill:none;stroke:black;stroke-width:0.87px;"/>
            </g>
            <g transform="matrix(1.16702,0,0,1.13556,-5.73907,-2.7048)">
                <path d="M7.888,15.911C7.688,18.114 7.712,19.503 7.402,23.035C10.758,25.097 10.84,24.932 13.974,27.282" style="fill:none;stroke:black;stroke-width:0.87px;"/>
            </g>
            <g transform="matrix(1.16702,0,0,1.13556,-5.73907,-2.7048)">
                <path d="M14.776,27.388C15.21,27.277 15.198,27.244 26.144,22.379" style="fill:none;stroke:black;stroke-width:0.87px;"/>
            </g>
            <g transform="matrix(1.16702,0,0,1.13556,-5.73907,-2.7048)">
                <path d="M26.701,18.032C27.151,20.282 26.631,22.829 26.84,23.457" style="fill:none;stroke:black;stroke-width:0.87px;"/>
            </g>
        </g>
    </g>
</svg>
