<?xml version="1.0" encoding="UTF-8" standalone="no"?>
<!DOCTYPE svg PUBLIC "-//W3C//DTD SVG 1.1//EN" "http://www.w3.org/Graphics/SVG/1.1/DTD/svg11.dtd">
<svg width="100%" height="100%" viewBox="0 0 25 27" version="1.1" xmlns="http://www.w3.org/2000/svg" xmlns:xlink="http://www.w3.org/1999/xlink" xml:space="preserve" xmlns:serif="http://www.serif.com/" style="fill-rule:evenodd;clip-rule:evenodd;stroke-linecap:round;stroke-linejoin:round;stroke-miterlimit:1.5;">
    <g transform="matrix(1,0,0,1,-3.19364,-2.66625)">
        <g id="pottery">
            <g transform="matrix(1.13498,0,0,1.10935,-3.44999,-3.6286)">
                <path d="M10.718,7.353C11.599,6.178 23.521,5.668 21.724,8.065C20.99,9.043 14.356,9.846 12.266,9.09C10.095,8.305 10.331,7.834 10.55,7.395" style="fill:none;stroke:black;stroke-width:0.89px;"/>
            </g>
            <g transform="matrix(1.13498,0,0,1.10935,-3.44999,-3.6286)">
                <path d="M10.55,7.939C11.655,10.886 11.718,11.681 9.943,13.882C7.446,16.978 8.144,19.804 11.199,23.716C13.547,26.724 14.172,28.193 15.97,28.361C16.41,28.403 20.55,28.227 22.958,27.671" style="fill:none;stroke:black;stroke-width:0.89px;"/>
            </g>
            <g transform="matrix(1.13498,0,0,1.10935,-3.44999,-3.6286)">
                <path d="M21.65,7.658C22.116,8.033 22.064,9.839 22.059,10.032C21.954,13.71 27.76,12.717 25.951,19.594C24.539,24.959 22.656,27.365 22.393,28.152" style="fill:none;stroke:black;stroke-width:0.89px;"/>
            </g>
        </g>
    </g>
</svg>
